Coordinates
version=1
nRows=13
nColumns=38
inDegrees=no

Units are S.I. units (second, meters, Newtons, ...)
If the header above contains a line with 'inDegrees', this indicates whether rotational values are in degrees (yes) or radians (no).

endheader
time	pelvis_tilt	pelvis_list	pelvis_rotation	pelvis_tx	pelvis_ty	pelvis_tz	hip_flexion_r	hip_adduction_r	hip_rotation_r	knee_angle_r	ankle_angle_r	subtalar_angle_r	mtp_angle_r	hip_flexion_l	hip_adduction_l	hip_rotation_l	knee_angle_l	ankle_angle_l	subtalar_angle_l	mtp_angle_l	lumbar_extension	lumbar_bending	lumbar_rotation	arm_flex_r	arm_add_r	arm_rot_r	elbow_flex_r	pro_sup_r	wrist_flex_r	wrist_dev_r	arm_flex_l	arm_add_l	arm_rot_l	elbow_flex_l	pro_sup_l	wrist_flex_l	wrist_dev_l
55	-2.91681	1.5104	-1.60725	0.601346	1.3948	1.07683	-0.0445937	-0.0233385	-0.0823673	0.40395	-0.204441	0	0	-0.131957	-0.0457123	-0.115128	0.388295	-0.160987	0	0	-0.0432191	0.00607495	0.141187	-0.0302517	-0.442881	0.4214	1.04047	1.5708	0	0	0.145731	-0.304907	0.688405	0.836702	1.5708	0	0
55.01	-2.93611	1.497	-1.58791	0.601299	1.39364	1.07769	-0.0599742	-0.0225433	-0.0856686	0.399674	-0.20532	0	0	-0.146738	-0.0468905	-0.117712	0.386655	-0.160332	0	0	-0.0679776	0.00655353	0.136457	-0.00661758	-0.42794	0.442424	0.965945	1.5708	0	0	0.154446	-0.294096	0.693815	0.789578	1.5708	0	0
55.02	-2.95101	1.48238	-1.57335	0.601316	1.39229	1.07857	-0.0759039	-0.0217276	-0.0890201	0.396819	-0.206183	0	0	-0.162511	-0.0482432	-0.121106	0.385637	-0.159369	0	0	-0.0978724	0.00691735	0.133674	0.0148311	-0.413502	0.45735	0.895669	1.5708	0	0	0.16442	-0.282905	0.696348	0.745272	1.5708	0	0
55.03	-2.93978	1.47895	-1.58452	0.601608	1.39141	1.07889	-0.0792664	-0.0224959	-0.0900846	0.395425	-0.20765	0	0	-0.166013	-0.0470065	-0.119054	0.383815	-0.160699	0	0	-0.116383	-0.00485951	0.137946	-0.0453629	-0.397948	0.291487	0.893512	1.38442	0	0	0.177006	-0.276642	0.705712	0.704635	1.5708	0	0
55.04	-2.97267	1.44616	-1.55258	0.601416	1.38922	1.08099	-0.116271	-0.019416	-0.0964209	0.387394	-0.211103	0	0	-0.202429	-0.0510238	-0.127159	0.38062	-0.159431	0	0	-0.172433	0.0079535	0.130427	0.0563894	-0.388724	0.479296	0.766721	1.5708	0	0	0.188933	-0.262653	0.701904	0.66379	1.5708	0	0
55.05	-2.97923	1.42702	-1.54677	0.601515	1.38748	1.08226	-0.137014	-0.0182386	-0.0990858	0.383803	-0.212368	0	0	-0.223205	-0.0524072	-0.13084	0.378381	-0.159421	0	0	-0.21312	0.00868024	0.128453	0.0787238	-0.378672	0.494558	0.706632	1.5708	0	0	0.200935	-0.25355	0.701335	0.626524	1.5708	0	0
55.06	-2.98442	1.40746	-1.54301	0.601679	1.38548	1.08355	-0.157367	-0.0172678	-0.0997044	0.381261	-0.213707	0	0	-0.244011	-0.0537407	-0.136254	0.376628	-0.159822	0	0	-0.256014	0.00925906	0.127602	0.0999297	-0.37084	0.509747	0.652561	1.5708	0	0	0.213733	-0.245148	0.699987	0.591587	1.5708	0	0
55.07	-2.99004	1.38733	-1.54006	0.601895	1.38327	1.08494	-0.177639	-0.0163531	-0.0977024	0.379363	-0.215153	0	0	-0.265613	-0.0547824	-0.142746	0.374267	-0.160832	0	0	-0.301231	0.010018	0.127983	0.120148	-0.364673	0.522249	0.603941	1.5708	0	0	0.22621	-0.236871	0.694158	0.559475	1.5708	0	0
55.08	-3.0442	1.33721	-1.54571	0.606281	1.37487	1.08976	-0.252254	-0.0199997	-0.107046	0.25197	-0.321728	0	0	-0.328224	-0.0472649	-0.205808	0.354301	-0.175403	0	0	-0.398588	0.0100362	0.179102	0.15872	-0.387634	0.544747	0.585107	1.5708	0	0	0.252381	-0.214059	0.670387	0.535142	1.5708	0	0
55.09	-3.03001	1.33848	-1.49976	0.602468	1.37942	1.08939	-0.284261	-0.00264147	-0.219627	0.191669	-0.369165	0	0	-0.32011	-0.067423	-0.14847	0.363603	-0.166995	0	0	-0.39479	0.0190979	0.130576	0.150838	-0.354179	0.539719	0.517597	1.5708	0	0	0.252739	-0.22207	0.689417	0.495306	1.5708	0	0
55.1	-3.00414	1.33557	-1.52934	0.602285	1.37774	1.08855	-0.23338	-0.0117409	-0.100067	0.36502	-0.230334	0	0	-0.322511	-0.057814	-0.147399	0.364669	-0.163969	0	0	-0.415088	0.0118849	0.133094	0.159543	-0.349395	0.546998	0.476557	1.5708	0	0	0.262223	-0.214688	0.690188	0.461714	1.5708	0	0
55.11	-3.00626	1.32395	-1.5271	0.602244	1.3761	1.08922	-0.246444	-0.0107889	-0.10322	0.359679	-0.22911	0	0	-0.333906	-0.0590361	-0.150604	0.365038	-0.162962	0	0	-0.444344	0.0123195	0.13456	0.166825	-0.345319	0.549082	0.439968	1.5708	0	0	0.272239	-0.208232	0.688528	0.430944	1.5708	0	0
55.12	-3.0344	1.29905	-1.49747	0.602598	1.37426	1.09192	-0.324248	0.000600285	-0.222565	0.185074	-0.376707	0	0	-0.361416	-0.0703653	-0.156829	0.359271	-0.1683	0	0	-0.486531	0.020656	0.136743	0.174985	-0.343443	0.553839	0.407907	1.5708	0	0	0.283045	-0.20271	0.685291	0.402948	1.5708	0	0
